{
  "accessors": [
    {
      "bufferView": 2,
      "componentType": 5126,
      "count": 2145,
      "max": [
        0.4603999853134155,
        1.4105000495910645,
        0.3756999969482422
      ],
      "min": [
        -0.4603999853134155,
        -0.364300012588501,
        -1.0053000450134277
      ],
      "type": "VEC3"
    },
    {
      "bufferView": 2,
      "byteOffset": 25740,
      "componentType": 5126,
      "count": 2145,
      "max": [
        0.9990188479423523,
        0.9998844861984253,
        0.9998118281364441
      ],
      "min": [
        -0.9990188479423523,
        -0.9996190667152405,
        -0.9989651441574097
      ],
      "type": "VEC3"
    },
    {
      "bufferView": 1,
      "componentType": 5126,
      "count": 2145,
      "max": [
        0.9876000285148621,
        0.9908000230789185
      ],
      "min": [
        0.011699999682605267,
        0.012799999676644802
      ],
      "type": "VEC2"
    },
    {
      "bufferView": 0,
      "componentType": 5125,
      "count": 11124,
      "type": "SCALAR"
    }
  ],
  "asset": {
    "extras": {
      "author": "strikebunny (https://sketchfab.com/strikebunny)",
      "license": "CC-BY-4.0 (http://creativecommons.org/licenses/by/4.0/)",
      "source": "https://sketchfab.com/3d-models/my-doge-a2779233edfd4d3cbd27b3ce8ef336fa",
      "title": "My Doge"
    },
    "generator": "Sketchfab-12.0.1",
    "version": "2.0"
  },
  "bufferViews": [
    {
      "buffer": 0,
      "byteLength": 44496,
      "name": "floatBufferViews",
      "target": 34963
    },
    {
      "buffer": 0,
      "byteLength": 17160,
      "byteOffset": 44496,
      "byteStride": 8,
      "name": "floatBufferViews",
      "target": 34962
    },
    {
      "buffer": 0,
      "byteLength": 51480,
      "byteOffset": 61656,
      "byteStride": 12,
      "name": "floatBufferViews",
      "target": 34962
    }
  ],
  "buffers": [
    {
      "byteLength": 113136,
      "uri": "scene.bin"
    }
  ],
  "images": [
    {
      "uri": "textures/scene_default_baseColor.jpeg"
    }
  ],
  "materials": [
    {
      "doubleSided": true,
      "name": "scene_default",
      "pbrMetallicRoughness": {
        "baseColorTexture": {
          "index": 0
        },
        "metallicFactor": 0.0
      }
    }
  ],
  "meshes": [
    {
      "name": "Object_0",
      "primitives": [
        {
          "attributes": {
            "NORMAL": 1,
            "POSITION": 0,
            "TEXCOORD_0": 2
          },
          "indices": 3,
          "material": 0,
          "mode": 4
        }
      ]
    }
  ],
  "nodes": [
    {
      "children": [
        1
      ],
      "matrix": [
        1.0,
        0.0,
        0.0,
        0.0,
        0.0,
        2.220446049250313e-16,
        -1.0,
        0.0,
        0.0,
        1.0,
        2.220446049250313e-16,
        0.0,
        0.0,
        0.0,
        0.0,
        1.0
      ],
      "name": "Sketchfab_model"
    },
    {
      "children": [
        2
      ],
      "name": "Shiba.obj.cleaner.materialmerger.gles"
    },
    {
      "mesh": 0,
      "name": "Object_2"
    }
  ],
  "samplers": [
    {
      "magFilter": 9729,
      "minFilter": 9987,
      "wrapS": 10497,
      "wrapT": 10497
    }
  ],
  "scene": 0,
  "scenes": [
    {
      "name": "Sketchfab_Scene",
      "nodes": [
        0
      ]
    }
  ],
  "textures": [
    {
      "sampler": 0,
      "source": 0
    }
  ]
}
